# xmcd
#
# Track frame offsets:
#       150
#       8794
#       22753
#       43924
#       57713
#       61973
#       76800
#       93639
#       109627
#       131253
#       148467
#       152238
#       167511
#       180947
#       195886
#       217688
#       222948
#       243600
#       265432
#
# Disc length: 3645 seconds
#
# Revision: 0
# Processed by: cddbd v1.5.2PL0 Copyright (c) Steve Scherf et al.
# Submitted via: WaveLab 6.11
#
DISCID=030e3b13
DTITLE=Lobuz - Provokacja
DYEAR=2016
DGENRE=Polska Rap
TTITLE0=Intro
TTITLE1=Filozofia nieczysta 
TTITLE2=Streetkingz feat. Alitiz and Czar 
TTITLE3=Moje miasto
TTITLE4=Skit Koks Dupy Alkohol
TTITLE5=Polska Impreza 
TTITLE6=U nas jest tu inaczej feat. Zelissa
TTITLE7=Rap, Jayjo, oder Hase
TTITLE8=Nasza ekipa feat. Alitiz
TTITLE9=Czym jest Beef 
TTITLE10=Skit Palic Blanta 
TTITLE11=Pal Pal feat. Jack da Rappa 
TTITLE12=Patriota
TTITLE13=Nie pokonany 
TTITLE14=H.W.D.T. (H.W.DISS.Toony)
TTITLE15=Skit Chlopaki nie placza 
TTITLE16=Wiesz o co chodzi feat. Spezial
TTITLE17=Rap, Jayjo, oder Hase (Remix)
TTITLE18=Outro
EXTD=
EXTT0=
EXTT1=
EXTT2=
EXTT3=
EXTT4=
EXTT5=
EXTT6=
EXTT7=
EXTT8=
EXTT9=
EXTT10=
EXTT11=
EXTT12=
EXTT13=
EXTT14=
EXTT15=
EXTT16=
EXTT17=
EXTT18=
PLAYORDER=
